<svg width="51" height="51" viewBox="0 0 51 51" fill="none" xmlns="http://www.w3.org/2000/svg">
<g clip-path="url(#clip0_250_212)">
<path d="M25.5 4.59199C32.3133 4.59199 33.1201 4.62187 35.7996 4.74141C38.2898 4.85098 39.6346 5.26934 40.5311 5.61797C41.7164 6.07617 42.573 6.63398 43.4596 7.52051C44.3561 8.41699 44.9039 9.26367 45.3621 10.449C45.7107 11.3455 46.1291 12.7002 46.2387 15.1805C46.3582 17.8699 46.3881 18.6768 46.3881 25.4801C46.3881 32.2934 46.3582 33.1002 46.2387 35.7797C46.1291 38.2699 45.7107 39.6147 45.3621 40.5111C44.9039 41.6965 44.3461 42.5531 43.4596 43.4397C42.5631 44.3361 41.7164 44.884 40.5311 45.3422C39.6346 45.6908 38.2799 46.1092 35.7996 46.2188C33.1102 46.3383 32.3033 46.3682 25.5 46.3682C18.6867 46.3682 17.8799 46.3383 15.2004 46.2188C12.7102 46.1092 11.3654 45.6908 10.4689 45.3422C9.28359 44.884 8.42695 44.3262 7.54043 43.4397C6.64395 42.5432 6.09609 41.6965 5.63789 40.5111C5.28926 39.6147 4.8709 38.26 4.76133 35.7797C4.6418 33.0902 4.61191 32.2834 4.61191 25.4801C4.61191 18.6668 4.6418 17.86 4.76133 15.1805C4.8709 12.6902 5.28926 11.3455 5.63789 10.449C6.09609 9.26367 6.65391 8.40703 7.54043 7.52051C8.43691 6.62402 9.28359 6.07617 10.4689 5.61797C11.3654 5.26934 12.7201 4.85098 15.2004 4.74141C17.8799 4.62187 18.6867 4.59199 25.5 4.59199ZM25.5 0C18.5772 0 17.7105 0.0298828 14.9912 0.149414C12.2818 0.268945 10.4191 0.707226 8.80547 1.33477C7.12207 1.99219 5.69766 2.85879 4.2832 4.2832C2.85879 5.69766 1.99219 7.12207 1.33477 8.79551C0.707227 10.4191 0.268945 12.2719 0.149414 14.9812C0.0298828 17.7105 0 18.5771 0 25.5C0 32.4229 0.0298828 33.2895 0.149414 36.0088C0.268945 38.7182 0.707227 40.5809 1.33477 42.1945C1.99219 43.8779 2.85879 45.3023 4.2832 46.7168C5.69766 48.1312 7.12207 49.0078 8.79551 49.6553C10.4191 50.2828 12.2719 50.7211 14.9813 50.8406C17.7006 50.9602 18.5672 50.99 25.49 50.99C32.4129 50.99 33.2795 50.9602 35.9988 50.8406C38.7082 50.7211 40.5709 50.2828 42.1846 49.6553C43.858 49.0078 45.2824 48.1312 46.6969 46.7168C48.1113 45.3023 48.9879 43.8779 49.6354 42.2045C50.2629 40.5809 50.7012 38.7281 50.8207 36.0188C50.9402 33.2994 50.9701 32.4328 50.9701 25.51C50.9701 18.5871 50.9402 17.7205 50.8207 15.0012C50.7012 12.2918 50.2629 10.4291 49.6354 8.81543C49.0078 7.12207 48.1412 5.69766 46.7168 4.2832C45.3023 2.86875 43.8779 1.99219 42.2045 1.34473C40.5809 0.717187 38.7281 0.278906 36.0188 0.159375C33.2895 0.0298828 32.4229 0 25.5 0Z" fill="#35C8B5"/>
<path d="M25.5 12.4014C18.2684 12.4014 12.4014 18.2684 12.4014 25.5C12.4014 32.7316 18.2684 38.5986 25.5 38.5986C32.7316 38.5986 38.5986 32.7316 38.5986 25.5C38.5986 18.2684 32.7316 12.4014 25.5 12.4014ZM25.5 33.9967C20.8084 33.9967 17.0033 30.1916 17.0033 25.5C17.0033 20.8084 20.8084 17.0033 25.5 17.0033C30.1916 17.0033 33.9967 20.8084 33.9967 25.5C33.9967 30.1916 30.1916 33.9967 25.5 33.9967Z" fill="#35C8B5"/>
<path d="M42.1746 11.8832C42.1746 13.5766 40.8 14.9412 39.1166 14.9412C37.4232 14.9412 36.0586 13.5666 36.0586 11.8832C36.0586 10.1898 37.4332 8.8252 39.1166 8.8252C40.8 8.8252 42.1746 10.1998 42.1746 11.8832Z" fill="#35C8B5"/>
</g>
<defs>
<clipPath id="clip0_250_212">
<rect width="51" height="51" fill="white"/>
</clipPath>
</defs>
</svg>
