<svg width="45" height="45" viewBox="0 0 45 45" fill="none" xmlns="http://www.w3.org/2000/svg">
<path d="M39.9938 18.4875H35.3063C35.0063 17.6625 34.6875 16.8562 34.2563 16.1062L37.6875 12.675C38.175 12.1875 38.175 11.3813 37.6875 10.875L34.125 7.31249C33.6375 6.82499 32.8312 6.82499 32.325 7.31249L28.8937 10.7437C28.1437 10.3125 27.3375 9.99375 26.5125 9.69375V5.00625C26.5125 4.3125 25.9499 3.75 25.2562 3.75H19.7438C19.0501 3.75 18.4875 4.3125 18.4875 5.00625V9.69375C17.6625 9.99375 16.8563 10.3125 16.1063 10.7437L12.675 7.31249C12.1875 6.82499 11.3812 6.82499 10.875 7.31249L7.31255 10.875C6.82505 11.3625 6.82505 12.1687 7.31255 12.675L10.7437 16.1062C10.3125 16.8562 9.99372 17.6625 9.69372 18.4875H5.00622C4.31247 18.4875 3.75 19.05 3.75 19.7437V25.2563C3.75 25.95 4.31247 26.5125 5.00622 26.5125H9.69372C9.99372 27.3375 10.3125 28.1438 10.7437 28.8938L7.31255 32.325C6.82505 32.8125 6.82505 33.6187 7.31255 34.125L10.875 37.6875C11.3625 38.175 12.1688 38.175 12.675 37.6875L16.1063 34.2563C16.8563 34.6875 17.6625 35.0063 18.4875 35.3063V39.9938C18.4875 40.6875 19.0501 41.25 19.7438 41.25H25.2562C25.9499 41.25 26.5125 40.6875 26.5125 39.9938V35.3063C27.3375 35.0063 28.1437 34.6875 28.8937 34.2563L32.325 37.6875C32.8125 38.175 33.6188 38.175 34.125 37.6875L37.6875 34.125C38.175 33.6375 38.175 32.8313 37.6875 32.325L34.2563 28.8938C34.6875 28.1438 35.0063 27.3375 35.3063 26.5125H39.9938C40.6875 26.5125 41.25 25.95 41.25 25.2563V19.7437C41.25 19.05 40.6875 18.4875 39.9938 18.4875ZM22.5 29.1938C18.8062 29.1938 15.8062 26.1938 15.8062 22.5C15.8062 18.8062 18.8062 15.8062 22.5 15.8062C26.1938 15.8062 29.1938 18.8062 29.1938 22.5C29.1938 26.1938 26.1938 29.1938 22.5 29.1938Z" fill="#35C8B5"/>
</svg>
