<svg width="36" height="36" viewBox="0 0 36 36" fill="none" xmlns="http://www.w3.org/2000/svg">
<path d="M8.61006 15.7221C11.7095 15.7221 14.225 13.2066 14.225 10.1071C14.225 7.00768 11.7095 4.49219 8.61006 4.49219C5.51061 4.49219 2.99512 7.00768 2.99512 10.1071C2.99512 13.2066 5.51061 15.7221 8.61006 15.7221Z" fill="#F8EC46"/>
<path d="M27.3269 30.6957C30.4263 30.6957 32.9418 28.1802 32.9418 25.0808C32.9418 21.9813 30.4263 19.4658 27.3269 19.4658C24.2274 19.4658 21.7119 21.9813 21.7119 25.0808C21.7119 28.1802 24.2274 30.6957 27.3269 30.6957Z" fill="#F8EC46"/>
<path d="M31.0696 11.9786H12.3531C11.859 11.9786 11.3798 11.784 11.0205 11.4396C10.6761 11.0952 10.4814 10.6161 10.4814 10.107C10.4814 9.59791 10.6761 9.13372 11.0205 8.77436C11.3649 8.42998 11.844 8.23535 12.3531 8.23535H31.0696C31.5637 8.23535 32.0428 8.42998 32.4022 8.77436C32.7466 9.11875 32.9412 9.59791 32.9412 10.107C32.9412 10.6161 32.7466 11.0803 32.4022 11.4396C32.0578 11.784 31.5786 11.9786 31.0696 11.9786Z" fill="#F8EC46"/>
<path d="M23.5832 26.9523H4.86676C4.37265 26.9523 3.89351 26.7576 3.53415 26.4133C3.18977 26.0689 2.99512 25.5897 2.99512 25.0806C2.99512 24.5715 3.18977 24.1074 3.53415 23.748C3.87854 23.4036 4.35768 23.209 4.86676 23.209H23.5832C24.0773 23.209 24.5565 23.4036 24.9158 23.748C25.2602 24.0924 25.4549 24.5715 25.4549 25.0806C25.4549 25.5897 25.2602 26.0539 24.9158 26.4133C24.5715 26.7576 24.0923 26.9523 23.5832 26.9523Z" fill="#F8EC46"/>
</svg>
