<svg width="51" height="51" viewBox="0 0 51 51" fill="none" xmlns="http://www.w3.org/2000/svg">
<g clip-path="url(#clip0_250_213)">
<path fill-rule="evenodd" clip-rule="evenodd" d="M51 25.5C51 39.5833 39.5833 51 25.5 51C11.4167 51 0 39.5833 0 25.5C0 11.4167 11.4167 0 25.5 0C39.5833 0 51 11.4167 51 25.5ZM26.4138 18.8252C23.9336 19.8568 18.9765 21.992 11.5428 25.2308C10.3356 25.7108 9.7033 26.1805 9.64573 26.6396C9.54844 27.4157 10.5203 27.7213 11.8436 28.1374C12.0236 28.194 12.2102 28.2526 12.4014 28.3148C13.7034 28.738 15.4548 29.2331 16.3652 29.2528C17.1911 29.2707 18.1129 28.9302 19.1306 28.2313C26.0762 23.5429 29.6616 21.1731 29.8867 21.122C30.0455 21.086 30.2655 21.0406 30.4146 21.1732C30.5637 21.3057 30.5491 21.5567 30.5333 21.624C30.437 22.0344 26.6223 25.5809 24.6481 27.4163C24.0327 27.9884 23.5962 28.3943 23.5069 28.487C23.307 28.6946 23.1033 28.891 22.9075 29.0798C21.6979 30.2458 20.7908 31.1202 22.9577 32.5482C23.999 33.2344 24.8322 33.8018 25.6635 34.3679C26.5714 34.9862 27.4769 35.6028 28.6484 36.3708C28.9469 36.5664 29.232 36.7697 29.5096 36.9676C30.5662 37.7208 31.5153 38.3975 32.688 38.2896C33.3694 38.2269 34.0732 37.5862 34.4307 35.6753C35.2755 31.1592 36.936 21.3742 37.3197 17.3421C37.3533 16.9888 37.311 16.5367 37.2771 16.3382C37.2431 16.1398 37.1721 15.857 36.9142 15.6476C36.6086 15.3997 36.137 15.3475 35.926 15.3512C34.9669 15.3681 33.4954 15.8797 26.4138 18.8252Z" fill="#35C8B5"/>
</g>
<defs>
<clipPath id="clip0_250_213">
<rect width="51" height="51" fill="white"/>
</clipPath>
</defs>
</svg>
