<svg width="43" height="43" viewBox="0 0 43 43" fill="none" xmlns="http://www.w3.org/2000/svg">
<path d="M19.161 16.0534C22.6027 16.0534 25.3991 13.2584 25.3991 9.81839C25.3991 6.37839 22.6027 3.58337 19.161 3.58337C15.7192 3.58337 12.9229 6.37839 12.9229 9.81839C12.9229 13.2584 15.7192 16.0534 19.161 16.0534Z" fill="#F8EC46"/>
<path d="M19.1609 22.2883C23.3017 22.2883 27.2632 23.9367 30.1851 26.8571C33.107 29.7775 34.7562 33.7371 34.7562 37.8759H3.5835C3.5835 33.7371 5.23266 29.7775 8.15454 26.8571C11.0764 23.9367 15.038 22.2883 19.1788 22.2883H19.1609Z" fill="#F8EC46"/>
<path d="M34.7375 16.0538C34.3254 16.0538 33.9312 15.8925 33.6266 15.6059C33.34 15.3192 33.1787 14.9251 33.1787 14.4951V8.26004C33.1787 7.84795 33.34 7.45379 33.6266 7.14921C33.9133 6.86254 34.3075 6.70129 34.7375 6.70129C35.1675 6.70129 35.5437 6.86254 35.8483 7.14921C36.135 7.43588 36.2962 7.83004 36.2962 8.26004V14.4951C36.2962 14.9071 36.135 15.3013 35.8483 15.6059C35.5616 15.8925 35.1675 16.0538 34.7375 16.0538Z" fill="#F8EC46"/>
<path d="M37.8572 12.9358H31.6191C31.2068 12.9358 30.8124 12.7746 30.5077 12.4879C30.2209 12.2013 30.0596 11.8071 30.0596 11.3771C30.0596 10.9471 30.2209 10.5709 30.5077 10.2663C30.7945 9.97961 31.1889 9.81836 31.6191 9.81836H37.8572C38.2695 9.81836 38.6639 9.97961 38.9686 10.2663C39.2554 10.5529 39.4167 10.9471 39.4167 11.3771C39.4167 11.8071 39.2554 12.1833 38.9686 12.4879C38.6818 12.7746 38.2874 12.9358 37.8572 12.9358Z" fill="#F8EC46"/>
</svg>
