<svg width="51" height="51" viewBox="0 0 51 51" fill="none" xmlns="http://www.w3.org/2000/svg">
<g clip-path="url(#clip0_250_214)">
<path fill-rule="evenodd" clip-rule="evenodd" d="M3.58501 3.58501C0 7.17003 0 12.94 0 24.48V26.52C0 38.06 0 43.8299 3.58501 47.415C7.17003 51 12.94 51 24.48 51H26.52C38.06 51 43.8299 51 47.415 47.415C51 43.8299 51 38.06 51 26.52V24.48C51 12.94 51 7.17003 47.415 3.58501C43.8299 0 38.06 0 26.52 0H24.48C12.94 0 7.17003 0 3.58501 3.58501ZM8.60638 15.5126C8.88263 28.7726 15.5126 36.7414 27.1364 36.7414H27.7952V29.1551C32.0665 29.5801 35.2962 32.7039 36.5925 36.7414H42.6276C40.9701 30.7064 36.6136 27.3701 33.8936 26.0951C36.6136 24.5226 40.4386 20.6976 41.3524 15.5126H35.8698C34.6798 19.7201 31.1527 23.5451 27.7952 23.9064V15.5126H22.3125V30.2176C18.9125 29.3676 14.6201 25.2451 14.4289 15.5126H8.60638Z" fill="#35C8B5"/>
</g>
<defs>
<clipPath id="clip0_250_214">
<rect width="51" height="51" fill="white"/>
</clipPath>
</defs>
</svg>
