<svg width="1684" height="297" viewBox="0 0 1684 297" fill="none" xmlns="http://www.w3.org/2000/svg">
<rect x="4" width="29" height="240" fill="#F8EC46"/>
<rect x="1684" y="268" width="29.0001" height="1684" transform="rotate(90 1684 268)" fill="#F8EC46"/>
<rect x="224" width="29" height="240" fill="#F8EC46"/>
<rect x="114" y="58" width="29" height="182" fill="#F8EC46"/>
<rect x="444" width="29" height="240" fill="#F8EC46"/>
<rect x="334" y="58" width="29" height="182" fill="#F8EC46"/>
<rect x="664" width="29" height="240" fill="#F8EC46"/>
<rect x="554" y="58" width="29" height="182" fill="#F8EC46"/>
<rect x="884" width="29" height="240" fill="#F8EC46"/>
<rect x="774" y="58" width="29" height="182" fill="#F8EC46"/>
<rect x="1104" width="29" height="240" fill="#F8EC46"/>
<rect x="994" y="58" width="29" height="182" fill="#F8EC46"/>
<rect x="1324" width="29" height="240" fill="#F8EC46"/>
<rect x="1214" y="58" width="29" height="182" fill="#F8EC46"/>
<rect x="1544" width="29" height="240" fill="#F8EC46"/>
<rect x="1434" y="58" width="29" height="182" fill="#F8EC46"/>
<rect x="1654" y="58" width="29" height="182" fill="#F8EC46"/>
</svg>
