<svg width="145" height="276" viewBox="0 0 145 276" fill="none" xmlns="http://www.w3.org/2000/svg">
<rect x="144.954" y="0.828369" width="10.768" height="122.589" transform="rotate(90 144.954 0.828369)" fill="#F8EC46"/>
<rect x="11.5967" y="275.826" width="11.5963" height="275.826" transform="rotate(-180 11.5967 275.826)" fill="#F8EC46"/>
<rect x="144.954" y="77.0325" width="9.11137" height="122.589" transform="rotate(90 144.954 77.0325)" fill="#F8EC46"/>
<rect x="115.135" y="39.7588" width="9.11137" height="92.7703" transform="rotate(90 115.135 39.7588)" fill="#F8EC46"/>
<rect x="144.954" y="153.237" width="9.93968" height="122.589" transform="rotate(90 144.954 153.237)" fill="#F8EC46"/>
<rect x="115.135" y="114.306" width="10.768" height="92.7703" transform="rotate(90 115.135 114.306)" fill="#F8EC46"/>
<rect x="144.954" y="227.784" width="10.768" height="122.589" transform="rotate(90 144.954 227.784)" fill="#F8EC46"/>
<rect x="115.135" y="190.51" width="9.93968" height="92.7703" transform="rotate(90 115.135 190.51)" fill="#F8EC46"/>
<rect x="115.135" y="265.886" width="9.93968" height="92.7703" transform="rotate(90 115.135 265.886)" fill="#F8EC46"/>
</svg>
