<svg width="203" height="386" viewBox="0 0 203 386" fill="none" xmlns="http://www.w3.org/2000/svg">
<rect x="202.853" y="1.15894" width="15.0691" height="171.556" transform="rotate(90 202.853 1.15894)" fill="#F8EC46"/>
<rect x="16.2285" y="386" width="16.2283" height="386" transform="rotate(-180 16.2285 386)" fill="#F8EC46"/>
<rect x="202.853" y="107.802" width="12.7508" height="171.556" transform="rotate(90 202.853 107.802)" fill="#F8EC46"/>
<rect x="161.123" y="55.6394" width="12.7508" height="129.826" transform="rotate(90 161.123 55.6394)" fill="#F8EC46"/>
<rect x="202.853" y="214.445" width="13.9099" height="171.556" transform="rotate(90 202.853 214.445)" fill="#F8EC46"/>
<rect x="161.123" y="159.964" width="15.0691" height="129.826" transform="rotate(90 161.123 159.964)" fill="#F8EC46"/>
<rect x="202.853" y="318.769" width="15.0691" height="171.556" transform="rotate(90 202.853 318.769)" fill="#F8EC46"/>
<rect x="161.123" y="266.607" width="13.9099" height="129.826" transform="rotate(90 161.123 266.607)" fill="#F8EC46"/>
<rect x="161.123" y="372.09" width="13.9099" height="129.826" transform="rotate(90 161.123 372.09)" fill="#F8EC46"/>
</svg>
