<svg width="298" height="493" viewBox="0 0 298 493" fill="none" xmlns="http://www.w3.org/2000/svg">
<rect x="298" y="2" width="18" height="258" transform="rotate(90 298 2)" fill="#F8EC46"/>
<rect x="20" y="493" width="20.0001" height="493" transform="rotate(-180 20 493)" fill="#F8EC46"/>
<rect x="298" y="138" width="17" height="258" transform="rotate(90 298 138)" fill="#F8EC46"/>
<rect x="235" y="70" width="18" height="195" transform="rotate(90 235 70)" fill="#F8EC46"/>
<rect x="298" y="273" width="18" height="258" transform="rotate(90 298 273)" fill="#F8EC46"/>
<rect x="235" y="205" width="18" height="195" transform="rotate(90 235 205)" fill="#F8EC46"/>
<rect x="298" y="408" width="18" height="258" transform="rotate(90 298 408)" fill="#F8EC46"/>
<rect x="235" y="340" width="18" height="195" transform="rotate(90 235 340)" fill="#F8EC46"/>
<rect x="235" y="475" width="18" height="195" transform="rotate(90 235 475)" fill="#F8EC46"/>
</svg>
