<svg width="1920" height="308" viewBox="0 0 1920 308" fill="none" xmlns="http://www.w3.org/2000/svg">
<rect x="1920" y="279" width="29.0001" height="1920" transform="rotate(90 1920 279)" fill="#F8EC46"/>
<rect x="125" width="29" height="240" fill="#F8EC46"/>
<rect x="345" width="29" height="240" fill="#F8EC46"/>
<rect x="235" y="58" width="29" height="182" fill="#F8EC46"/>
<rect x="565" width="29" height="240" fill="#F8EC46"/>
<rect x="455" y="58" width="29" height="182" fill="#F8EC46"/>
<rect x="785" width="29" height="240" fill="#F8EC46"/>
<rect x="675" y="58" width="29" height="182" fill="#F8EC46"/>
<rect x="1005" width="29" height="240" fill="#F8EC46"/>
<rect x="895" y="58" width="29" height="182" fill="#F8EC46"/>
<rect x="1225" width="29" height="240" fill="#F8EC46"/>
<rect x="1115" y="58" width="29" height="182" fill="#F8EC46"/>
<rect x="1445" width="29" height="240" fill="#F8EC46"/>
<rect x="1335" y="58" width="29" height="182" fill="#F8EC46"/>
<rect x="1665" width="29" height="240" fill="#F8EC46"/>
<rect x="1555" y="58" width="29" height="182" fill="#F8EC46"/>
<rect x="1775" y="58" width="29" height="182" fill="#F8EC46"/>
</svg>
